<?xml version="1.0" encoding="UTF-8"?><svg id="Primary" xmlns="http://www.w3.org/2000/svg" viewBox="0 0 1131 175"><defs><style>.cls-1{fill:#11bcbc;stroke-width:0px;}</style></defs><path class="cls-1" d="M113.06,126.7c-3.39,2.69-7.09,4.99-11.11,6.91-4.02,1.93-8.43,3.39-13.21,4.38-4.79.99-10.15,1.49-16.1,1.49-8.99,0-17.33-1.64-25.02-4.9-7.7-3.27-14.35-7.73-19.95-13.39-5.6-5.66-9.98-12.34-13.12-20.04-3.15-7.7-4.73-15.92-4.73-24.67v-.35c0-8.75,1.58-16.94,4.73-24.59,3.15-7.64,7.52-14.35,13.12-20.12s12.31-10.33,20.12-13.65c7.81-3.33,16.45-4.99,25.9-4.99,5.71,0,10.94.47,15.66,1.4,4.73.94,9.01,2.22,12.86,3.85,3.85,1.64,7.41,3.62,10.68,5.95,3.26,2.33,6.3,4.9,9.1,7.7l-17.15,19.78c-4.79-4.31-9.65-7.7-14.61-10.15-4.96-2.45-10.53-3.67-16.71-3.67-5.14,0-9.89.99-14.26,2.98-4.38,1.98-8.14,4.73-11.29,8.23-3.15,3.5-5.6,7.55-7.35,12.16-1.75,4.61-2.62,9.54-2.62,14.79v.35c0,5.25.88,10.21,2.62,14.88,1.75,4.67,4.17,8.75,7.26,12.25,3.09,3.5,6.83,6.27,11.2,8.31,4.38,2.04,9.19,3.06,14.44,3.06,7,0,12.92-1.28,17.76-3.85,4.84-2.56,9.65-6.06,14.44-10.5l17.15,17.33c-3.15,3.39-6.42,6.42-9.8,9.1Z"/><path class="cls-1" d="M187.26,137.38v-10.15c-3.27,3.62-7.18,6.5-11.73,8.66-4.55,2.16-10.09,3.24-16.62,3.24-4.44,0-8.6-.61-12.51-1.84-3.91-1.23-7.32-3.06-10.24-5.51-2.92-2.45-5.22-5.45-6.91-9.01-1.69-3.56-2.54-7.67-2.54-12.34v-.35c0-5.13.93-9.56,2.8-13.3,1.86-3.73,4.46-6.82,7.79-9.27,3.32-2.45,7.29-4.29,11.9-5.51,4.61-1.22,9.71-1.84,15.31-1.84,4.78,0,8.95.35,12.51,1.05,3.56.7,7.03,1.63,10.41,2.8v-1.58c0-5.6-1.69-9.86-5.07-12.77-3.39-2.91-8.4-4.38-15.05-4.38-5.14,0-9.65.44-13.56,1.31-3.91.88-8.02,2.13-12.34,3.76l-6.65-20.3c5.13-2.21,10.5-4.02,16.1-5.42,5.6-1.4,12.36-2.1,20.3-2.1,14.58,0,25.2,3.56,31.85,10.68,6.65,7.12,9.98,17.04,9.98,29.75v54.42h-25.73ZM187.79,99.58c-2.33-1.05-4.93-1.9-7.79-2.54-2.86-.64-5.92-.96-9.19-.96-5.72,0-10.21,1.11-13.48,3.32-3.27,2.22-4.9,5.43-4.9,9.62v.35c0,3.62,1.34,6.42,4.02,8.4,2.68,1.99,6.18,2.98,10.5,2.98,6.3,0,11.35-1.51,15.14-4.55,3.79-3.03,5.69-7,5.69-11.9v-4.72Z"/><path class="cls-1" d="M281.76,69.65c-8.87,0-15.84,2.69-20.91,8.05-5.07,5.37-7.61,13.71-7.61,25.02v34.65h-26.6V43.58h26.6v18.9c2.68-6.42,6.36-11.55,11.02-15.4,4.67-3.85,10.96-5.6,18.9-5.25v27.82h-1.4Z"/><path class="cls-1" d="M377.92,96.43c-.06.94-.15,2.04-.26,3.33h-65.27c1.28,6.07,3.94,10.65,7.96,13.74,4.03,3.09,9.01,4.64,14.96,4.64,4.43,0,8.4-.76,11.9-2.27,3.5-1.52,7.11-3.96,10.85-7.35l15.22,13.48c-4.44,5.48-9.8,9.77-16.1,12.86-6.3,3.09-13.71,4.64-22.23,4.64-7,0-13.51-1.17-19.51-3.5-6.01-2.33-11.2-5.66-15.57-9.98-4.38-4.31-7.79-9.42-10.24-15.31-2.45-5.89-3.67-12.45-3.67-19.69v-.35c0-6.65,1.14-12.95,3.41-18.9,2.27-5.95,5.45-11.14,9.54-15.58,4.08-4.43,8.95-7.93,14.61-10.5,5.66-2.56,11.93-3.85,18.81-3.85,7.81,0,14.58,1.4,20.3,4.2,5.71,2.8,10.47,6.56,14.26,11.29,3.79,4.73,6.59,10.15,8.4,16.27,1.81,6.12,2.71,12.51,2.71,19.16v.35c0,1.29-.03,2.39-.09,3.32ZM345.81,68.69c-3.39-3.67-7.88-5.51-13.48-5.51s-10.12,1.81-13.56,5.43c-3.44,3.62-5.69,8.46-6.74,14.52h40.08c-.82-5.95-2.92-10.76-6.3-14.44Z"/><path class="cls-1" d="M475.92,96.43c-.06.94-.15,2.04-.26,3.33h-65.27c1.28,6.07,3.94,10.65,7.96,13.74,4.03,3.09,9.01,4.64,14.96,4.64,4.43,0,8.4-.76,11.9-2.27,3.5-1.52,7.11-3.96,10.85-7.35l15.22,13.48c-4.44,5.48-9.8,9.77-16.1,12.86-6.3,3.09-13.71,4.64-22.23,4.64-7,0-13.51-1.17-19.51-3.5-6.01-2.33-11.2-5.66-15.57-9.98-4.38-4.31-7.79-9.42-10.24-15.31-2.45-5.89-3.67-12.45-3.67-19.69v-.35c0-6.65,1.14-12.95,3.41-18.9,2.27-5.95,5.45-11.14,9.54-15.58,4.08-4.43,8.95-7.93,14.61-10.5,5.66-2.56,11.93-3.85,18.81-3.85,7.81,0,14.58,1.4,20.3,4.2,5.71,2.8,10.47,6.56,14.26,11.29,3.79,4.73,6.59,10.15,8.4,16.27,1.81,6.12,2.71,12.51,2.71,19.16v.35c0,1.29-.03,2.39-.09,3.32ZM443.81,68.69c-3.39-3.67-7.88-5.51-13.48-5.51s-10.12,1.81-13.56,5.43c-3.44,3.62-5.69,8.46-6.74,14.52h40.08c-.82-5.95-2.92-10.76-6.3-14.44Z"/><path class="cls-1" d="M541.63,69.65c-8.87,0-15.84,2.69-20.91,8.05-5.07,5.37-7.61,13.71-7.61,25.02v34.65h-26.6V43.58h26.6v18.9c2.68-6.42,6.36-11.55,11.02-15.4,4.67-3.85,10.96-5.6,18.9-5.25v27.82h-1.4Z"/><path class="cls-1" d="M616.45,122.41c-1.81,3.79-4.35,6.91-7.61,9.36-3.27,2.45-7.09,4.29-11.46,5.51s-9.07,1.84-14.09,1.84c-6.65,0-13.45-1.14-20.39-3.41-6.94-2.27-13.56-5.86-19.86-10.76l11.38-17.5c5.13,3.73,10.24,6.54,15.31,8.4,5.08,1.87,9.83,2.8,14.26,2.8,3.85,0,6.68-.64,8.49-1.92,1.81-1.28,2.71-2.98,2.71-5.08v-.35c0-1.4-.53-2.62-1.57-3.67-1.05-1.05-2.48-1.95-4.29-2.71-1.81-.76-3.88-1.49-6.21-2.19-2.34-.7-4.79-1.46-7.35-2.27-3.27-.93-6.56-2.07-9.89-3.41-3.32-1.34-6.33-3.09-9.01-5.25-2.69-2.16-4.87-4.81-6.56-7.96-1.69-3.15-2.54-7-2.54-11.55v-.35c0-4.78.9-9.01,2.71-12.69,1.81-3.67,4.26-6.79,7.35-9.36,3.09-2.56,6.71-4.49,10.85-5.77,4.14-1.28,8.6-1.93,13.39-1.93,5.95,0,11.99.96,18.11,2.89s11.75,4.58,16.89,7.96l-10.15,18.38c-4.67-2.68-9.22-4.81-13.65-6.39-4.44-1.58-8.34-2.36-11.73-2.36s-5.72.61-7.35,1.84c-1.63,1.23-2.45,2.77-2.45,4.64v.35c0,1.29.53,2.42,1.57,3.41,1.05.99,2.45,1.92,4.2,2.8s3.76,1.72,6.04,2.54c2.28.82,4.7,1.64,7.26,2.45,3.27,1.05,6.59,2.31,9.97,3.76,3.38,1.46,6.42,3.24,9.1,5.34,2.68,2.1,4.9,4.67,6.65,7.7,1.75,3.04,2.62,6.71,2.62,11.02v.35c0,5.25-.9,9.77-2.71,13.56Z"/><path class="cls-1" d="M776.57,101.33c-1.81,5.48-4.29,10.06-7.44,13.74-3.15,3.67-6.86,6.42-11.11,8.23-4.26,1.81-8.78,2.71-13.56,2.71-7.12,0-12.81-1.11-17.06-3.33-4.26-2.21-7.5-4.61-9.71-7.17-3.04,2.69-6.68,5.1-10.94,7.26-4.26,2.16-9.25,3.24-14.96,3.24-4.43,0-8.6-.79-12.51-2.36-3.91-1.58-7.32-3.82-10.24-6.74-2.92-2.91-5.19-6.44-6.82-10.59-1.64-4.14-2.45-8.84-2.45-14.09,0-6.18,1.08-11.96,3.24-17.33,2.16-5.36,5.04-10,8.66-13.91,3.62-3.91,7.79-7,12.51-9.27,4.73-2.27,9.65-3.41,14.79-3.41,6.06,0,10.99,1.14,14.79,3.41,3.79,2.27,6.91,5.1,9.36,8.49l1.92-9.28,20.65,3.33-8.22,47.08c-.24.94-.38,1.9-.44,2.89-.06.99-.09,1.84-.09,2.54,0,3.15,1.11,5.77,3.33,7.88,2.21,2.1,5.36,3.15,9.45,3.15,3.15,0,6.06-.76,8.75-2.27,2.68-1.51,5.01-3.79,7-6.83,1.98-3.03,3.56-6.76,4.72-11.2,1.17-4.43,1.75-9.56,1.75-15.4,0-8.05-1.75-15.84-5.25-23.36s-8.31-14.17-14.44-19.95c-6.12-5.78-13.42-10.38-21.88-13.83-8.46-3.44-17.59-5.16-27.39-5.16s-19.1,1.84-27.56,5.51c-8.46,3.67-15.78,8.66-21.96,14.96-6.19,6.3-11.03,13.68-14.53,22.14-3.5,8.46-5.25,17.47-5.25,27.04s1.75,18.73,5.25,27.12c3.5,8.4,8.37,15.72,14.61,21.96,6.24,6.24,13.68,11.17,22.31,14.79,8.63,3.62,18.14,5.43,28.53,5.43,8.75,0,16.42-.99,23.01-2.98,6.59-1.99,13.21-4.9,19.86-8.75l3.5,5.6c-6.77,4.08-13.91,7.29-21.44,9.62-7.53,2.33-15.84,3.5-24.94,3.5-11.2,0-21.56-2.01-31.06-6.04-9.51-4.02-17.76-9.51-24.76-16.45-7-6.94-12.46-15.02-16.36-24.24-3.91-9.21-5.86-19.08-5.86-29.58s1.98-20.39,5.95-29.66c3.96-9.28,9.39-17.38,16.28-24.33,6.88-6.94,14.99-12.45,24.33-16.54,9.33-4.08,19.36-6.12,30.1-6.12s20.74,1.93,30.01,5.77c9.28,3.85,17.35,8.99,24.24,15.4,6.88,6.42,12.28,13.8,16.19,22.14,3.91,8.34,5.86,17.01,5.86,25.99,0,7.35-.9,13.77-2.71,19.25ZM714.18,70.79c-3.04-2.98-6.94-4.46-11.72-4.46-2.8,0-5.49.64-8.05,1.92-2.57,1.29-4.81,3-6.74,5.16-1.92,2.16-3.44,4.75-4.55,7.79-1.11,3.04-1.66,6.3-1.66,9.8,0,5.49,1.51,9.69,4.55,12.6,3.03,2.92,7,4.38,11.9,4.38,2.8,0,5.45-.64,7.96-1.93,2.51-1.28,4.72-3.06,6.65-5.34,1.92-2.27,3.44-4.93,4.55-7.96,1.11-3.03,1.66-6.36,1.66-9.98,0-5.01-1.52-9.01-4.55-11.99Z"/><path class="cls-1" d="M882.79,133.79c-8.69,3.79-18.64,5.69-29.84,5.69-9.57,0-18.29-1.58-26.16-4.73s-14.64-7.52-20.3-13.12c-5.66-5.6-10.06-12.25-13.21-19.95-3.15-7.7-4.72-16.1-4.72-25.2v-.35c0-8.75,1.6-16.94,4.81-24.59,3.21-7.64,7.67-14.35,13.39-20.12,5.71-5.77,12.48-10.33,20.3-13.65,7.81-3.33,16.39-4.99,25.72-4.99,5.48,0,10.47.38,14.96,1.14,4.49.76,8.66,1.84,12.51,3.24,3.85,1.4,7.46,3.15,10.85,5.25,3.38,2.1,6.65,4.49,9.8,7.18l-16.97,20.47c-2.34-1.98-4.67-3.73-7-5.25-2.34-1.51-4.76-2.8-7.26-3.85-2.51-1.05-5.22-1.87-8.14-2.45-2.92-.58-6.12-.88-9.62-.88-4.9,0-9.48,1.03-13.74,3.07-4.26,2.05-7.99,4.79-11.2,8.24-3.21,3.45-5.72,7.48-7.53,12.1-1.81,4.62-2.71,9.56-2.71,14.82v.35c0,5.61.9,10.79,2.71,15.52,1.81,4.74,4.38,8.86,7.7,12.37,3.33,3.51,7.23,6.23,11.73,8.16,4.49,1.93,9.48,2.89,14.96,2.89,10.03,0,18.49-2.47,25.38-7.4v-17.62h-27.12v-23.27h53.2v53.2c-6.3,5.37-13.8,9.95-22.49,13.74Z"/><path class="cls-1" d="M1012.21,109.64c-2.57,5.89-6.12,11.05-10.67,15.49-4.55,4.44-9.92,7.94-16.1,10.5-6.18,2.56-12.95,3.85-20.3,3.85s-13.94-1.26-20.12-3.76c-6.18-2.51-11.52-5.95-16.01-10.32-4.49-4.38-8.02-9.51-10.59-15.4-2.57-5.89-3.85-12.22-3.85-18.99v-.35c0-6.76,1.28-13.09,3.85-18.99,2.56-5.89,6.12-11.05,10.67-15.49,4.55-4.43,9.92-7.93,16.1-10.5,6.18-2.56,12.95-3.85,20.3-3.85s13.94,1.25,20.12,3.76c6.18,2.51,11.52,5.95,16.01,10.33,4.49,4.38,8.02,9.51,10.59,15.4,2.56,5.89,3.85,12.22,3.85,18.99v.35c0,6.77-1.29,13.1-3.85,18.99ZM989.8,90.65c0-3.5-.58-6.79-1.75-9.89-1.17-3.09-2.86-5.83-5.07-8.23-2.22-2.39-4.84-4.29-7.88-5.69-3.04-1.4-6.36-2.1-9.98-2.1-3.85,0-7.26.67-10.24,2.01-2.97,1.34-5.51,3.18-7.61,5.51-2.1,2.34-3.71,5.05-4.81,8.14-1.11,3.09-1.66,6.39-1.66,9.89v.35c0,3.5.58,6.8,1.75,9.89,1.17,3.09,2.86,5.83,5.08,8.23,2.21,2.39,4.81,4.29,7.79,5.69,2.97,1.4,6.33,2.1,10.06,2.1s7.26-.67,10.24-2.01c2.97-1.34,5.51-3.18,7.61-5.51,2.1-2.33,3.7-5.04,4.81-8.14,1.11-3.09,1.66-6.39,1.66-9.89v-.35Z"/><path class="cls-1" d="M1078.7,138.08h-24.15l-36.92-94.5h28.17l21,62.82,21.17-62.82h27.65l-36.92,94.5Z"/></svg>